<?xml version="1.0" encoding="UTF-8" standalone="no"?>
<svg
   xmlns:dc="http://purl.org/dc/elements/1.1/"
   xmlns:cc="http://creativecommons.org/ns#"
   xmlns:rdf="http://www.w3.org/1999/02/22-rdf-syntax-ns#"
   xmlns:svg="http://www.w3.org/2000/svg"
   xmlns="http://www.w3.org/2000/svg"
   xmlns:sodipodi="http://sodipodi.sourceforge.net/DTD/sodipodi-0.dtd"
   xmlns:inkscape="http://www.inkscape.org/namespaces/inkscape"
   version="1.1"
   id="CombinedIcon"
   x="0px"
   y="0px"
   width="32px"
   height="32px"
   viewBox="0 0 32 32"
   enable-background="new 0 0 100 100"
   xml:space="preserve"
   sodipodi:docname="ciftlik_eko_girisim.svg"
   inkscape:version="0.92.0 r"><metadata
     id="metadata4606" /><defs
     id="defs4604" /><sodipodi:namedview
     pagecolor="#ffffff"
     bordercolor="#666666"
     borderopacity="1"
     objecttolerance="10"
     gridtolerance="10"
     guidetolerance="10"
     inkscape:pageopacity="0"
     inkscape:pageshadow="2"
     inkscape:window-width="640"
     inkscape:window-height="480"
     id="namedview4602"
     showgrid="false"
     inkscape:zoom="8.0542763"
     inkscape:cx="17.352381"
     inkscape:cy="14.848003"
     inkscape:window-x="0"
     inkscape:window-y="29"
     inkscape:window-maximized="0"
     inkscape:current-layer="CombinedIcon" /><g
     id="gmarkerbase"
     transform="matrix(1.0662174,0,0,1.0662174,-1.0594786,-1.0594786)"><svg
       id="markerbase"
       x="0px"
       y="0px"
       width="32"
       height="32"
       viewBox="0 0 32 32"
       enable-background="new 0 0 32 32"
       xml:space="preserve"
       version="0.48.4 r9939"
       docname="community.svg"
       class="injected-svg"><metadata
         id="metadata19"><rdf:RDF><cc:Work
             about=""><dc:format>image/svg+xml</dc:format><dc:type
               resource="http://purl.org/dc/dcmitype/StillImage"
               rdf:resource="http://purl.org/dc/dcmitype/StillImage" /><dc:title /></cc:Work></rdf:RDF></metadata><defs
         id="defs17" /><sodipodi:namedview
         pagecolor="#ffffff"
         bordercolor="#666666"
         borderopacity="1"
         objecttolerance="10"
         gridtolerance="10"
         guidetolerance="10"
         pageopacity="0"
         pageshadow="2"
         window-width="640"
         window-height="480"
         id="namedview15"
         showgrid="false"
         zoom="7.375"
         cx="16"
         cy="16"
         window-x="488"
         window-y="115"
         window-maximized="0"
         current-layer="Layer_1" /><path
         d="M 16,1 C 24.284,1 31,7.716 31,16 31,24.284 24.284,31 16,31 7.716,31 1,24.284 1,16 1,7.716 7.716,1 16,1 Z"
         id="path3"
         inkscape:connector-curvature="0"
         style="fill:#008080" /></svg></g><g
     id="gmarkericon"
     transform="translate(5,5)"><g
       transform="scale(0.68)"
       id="g4598"><svg
         version="1.1"
         x="0px"
         y="0px"
         viewBox="0 0 72 72"
         enable-background="new 0 0 72 72"
         xml:space="preserve"
         id="svg4596"><path
           fill="#fff"
           d="M52,47.8L52,47.8l0-24.3c0-0.1,0.1-0.2,0.1-0.2h4.4c0.1,0,0.2-0.2,0.1-0.3l-6.2-7c0,0-0.1-0.1-0.1-0.2V3.8  c0-0.1,0.1-0.2,0.1-0.2h0.8c0.1,0,0.1-0.1,0.1-0.2V1.6c0-0.1-0.1-0.2-0.1-0.2h-6.8c-0.1,0-0.1,0.1-0.1,0.2v1.8  c0,0.1,0.1,0.2,0.1,0.2h0.8c0.1,0,0.1,0.1,0.1,0.2V10c0,0.2-0.1,0.3-0.2,0.1L37.1,1C37,1,36.9,1,36.9,1L17.3,23  c-0.1,0.1,0,0.3,0.1,0.3h4.4c0.1,0,0.1,0.1,0.1,0.2v20.8c0,0.1-0.1,0.2-0.1,0.2c-10.1,2.3-18.2,6.8-20.8,8.4C0.9,53,1,53.3,1.2,53.3  c28.5-5,20.8,9.7,20.6,10.1c0,0,0,0,0,0c-3.4,7.9,2.1,5.5,2.3,5.4c0,0,0,0,0,0c12.9-7.7,43.3,1.1,46.8,2.2c0.1,0,0.2-0.1,0.2-0.3  C65.8,59,59.1,51.9,52,47.8z M31.6,43.2c-0.1,0-0.2-0.1-0.2-0.2V33c0-3.9,2.2-7.1,4.9-7.1c2.7,0,4.9,3.2,4.9,7.1v10.7  c0,0.1-0.1,0.2-0.2,0.2C37.9,43.3,34.7,43.1,31.6,43.2z"
           id="path4594" /></svg></g></g></svg>