<?xml version="1.0" encoding="UTF-8" standalone="no"?>
<svg
   xmlns:dc="http://purl.org/dc/elements/1.1/"
   xmlns:cc="http://creativecommons.org/ns#"
   xmlns:rdf="http://www.w3.org/1999/02/22-rdf-syntax-ns#"
   xmlns:svg="http://www.w3.org/2000/svg"
   xmlns="http://www.w3.org/2000/svg"
   xmlns:sodipodi="http://sodipodi.sourceforge.net/DTD/sodipodi-0.dtd"
   xmlns:inkscape="http://www.inkscape.org/namespaces/inkscape"
   version="1.1"
   id="CombinedIcon"
   x="0px"
   y="0px"
   width="32px"
   height="32px"
   viewBox="0 0 32 32"
   enable-background="new 0 0 100 100"
   xml:space="preserve"
   sodipodi:docname="ekolojik_pazar_gida_toplulugu.svg"
   inkscape:version="0.92.0 r"><metadata
     id="metadata4660" /><defs
     id="defs4658" /><sodipodi:namedview
     pagecolor="#ffffff"
     bordercolor="#666666"
     borderopacity="1"
     objecttolerance="10"
     gridtolerance="10"
     guidetolerance="10"
     inkscape:pageopacity="0"
     inkscape:pageshadow="2"
     inkscape:window-width="640"
     inkscape:window-height="480"
     id="namedview4656"
     showgrid="false"
     inkscape:zoom="7.60198"
     inkscape:cx="15.194285"
     inkscape:cy="20.47537"
     inkscape:window-x="0"
     inkscape:window-y="29"
     inkscape:window-maximized="0"
     inkscape:current-layer="CombinedIcon" /><g
     id="gmarkerbase"
     transform="matrix(1.0701572,0,0,1.0701572,-1.1225146,-1.1225146)"><svg
       id="markerbase"
       x="0px"
       y="0px"
       width="32"
       height="32"
       viewBox="0 0 32 32"
       enable-background="new 0 0 32 32"
       xml:space="preserve"
       version="0.48.4 r9939"
       docname="community.svg"
       class="injected-svg"><metadata
         id="metadata19"><rdf:RDF><cc:Work
             about=""><dc:format>image/svg+xml</dc:format><dc:type
               resource="http://purl.org/dc/dcmitype/StillImage"
               rdf:resource="http://purl.org/dc/dcmitype/StillImage" /><dc:title /></cc:Work></rdf:RDF></metadata><defs
         id="defs17" /><sodipodi:namedview
         pagecolor="#ffffff"
         bordercolor="#666666"
         borderopacity="1"
         objecttolerance="10"
         gridtolerance="10"
         guidetolerance="10"
         pageopacity="0"
         pageshadow="2"
         window-width="640"
         window-height="480"
         id="namedview15"
         showgrid="false"
         zoom="7.375"
         cx="16"
         cy="16"
         window-x="488"
         window-y="115"
         window-maximized="0"
         current-layer="Layer_1" /><path
         d="M 16,1 C 24.284,1 31,7.716 31,16 31,24.284 24.284,31 16,31 7.716,31 1,24.284 1,16 1,7.716 7.716,1 16,1 Z"
         id="path3"
         inkscape:connector-curvature="0"
         style="fill:#008040" /></svg></g><g
     id="gmarkericon"
     transform="translate(5,5)"><g
       transform="scale(0.68)"
       id="g4652"><svg
         version="1.1"
         x="0px"
         y="0px"
         viewBox="0 0 90 90"
         id="svg4650"><desc
           ivinci="yes"
           version="4.4"
           gridstep="20"
           showgrid="no"
           snaptogrid="no"
           codeplatform="0"
           id="desc4640" /><g
           id="g4648"><g
             id="g4646"><desc
               type="0"
               basicinfo-basictype="0"
               basicinfo-roundedrectradius="12"
               basicinfo-polygonsides="6"
               basicinfo-starpoints="5"
               bounding="rect(-44.983,-34.13,89.966,68.26)"
               text=""
               font-familyname=""
               font-pixelsize="20"
               font-bold="0"
               font-underline="0"
               font-alignment="1"
               strokestyle="0"
               markerstart="0"
               markerend="0"
               shadowenabled="0"
               shadowoffsetx="0"
               shadowoffsety="2"
               shadowblur="4"
               shadowopacity="160"
               blurenabled="0"
               blurradius="4"
               transform="matrix(1,0,0,1,44.983,45)"
               pers-center="0,0"
               pers-size="0,0"
               pers-start="0,0"
               pers-end="0,0"
               locked="0"
               mesh=""
               flag=""
               id="desc4642" /><path
               d="M7.606,11.531 L24.731,10.87 L38.803,16.938 L49.015,22.864 C49.015,22.864 49.773,24.302 50.505,25.574 C46.816,25.751 39.775,27.97 40.683,31.99 C41.411,35.217 45.893,36.227 48.996,36.551 C51.0568,36.6909 53.1486,36.5076 55.147,35.981 C57.931,35.3914 62.6595,32.7076 61.053,29.292 C60.117,28.08 59.738,27.931 58.608,27.211 C58.783,26.982 58.959,26.754 59.133,26.525 L68.087,29.514 L73.93,27.255 L80.66,25.877 L85.177,27.487 L84.178,31.766 L77.698,33.842 L69.561,38.319 L61.224,39.63 L57.567,38.216 L57.942,45.273 L59.48,41.408 L67.766,40.064 L67.156,43.806 L68.735,41.366 L81.954,37.781 L88.194,37.781 L89.966,43.169 L86.23,46.358 L78.436,47.879 L70.96,51.71 L57.611,50.263 L54.61,50.348 L51.551,53.606 L53.022,55.736 L53.311,53.229 L54.906,51.824 L62.489,52.037 L66.983,53.353 L65.733,58.634 L67.845,54.508 L76.543,53.378 L84.694,51.894 L88.072,55.273 L86.513,60.471 L82.29,61.315 L78.196,62.613 L66.695,62.079 L62.156,62.122 L59.127,62.099 C59.127,62.099 45.111,55.747 45.111,55.747 L40.635,57.214 L37.467,62.136 C37.467,62.136 43.943,57.238 43.943,57.238 L56.998,62.925 L56.374,65.282 L57.791,63.865 L62.164,64.121 L68.563,63.809 L75.985,63.94 L80.044,66.645 L78.99,72.257 L70.367,74.963 L57.087,74.702 L35.397,67.768 L31.902,61.506 L26.722,55.157 L21.323,52.301 L19.833,46.024 L20.377,45.194 L18.008,40.611 L19.111,45.196 L8.194,45.497 C8.194,45.497 18.808,45.814 18.808,45.814 L20.612,51.569 C20.612,51.569 14.287,52.679 14.287,52.679 L20.507,52.695 L27.402,56.929 L32.552,64.45 L36.482,73.805 L33.285,79.13 L27.523,77.774 L20.718,69.575 L12.564,62.706 L5.25,54.338 L0,42.023 L0.0340004,19.158 L7.606,11.531 M32.974,19.586 C32.974,19.586 30.508,25.186 30.508,25.186 L31.649,25.007 C31.649,25.007 32.974,19.586 32.974,19.586 M52.164,24.028 L55.91,24.887 L57.339,26.477 C54.914,25.637 53.887,25.687 51.231,25.51 L52.164,24.028 M43.762,41.747 C42.503,42.245 42.185,42.471 41.204,43.055 C38.418,44.94 35.78,47.86 36.475,51.267 C37.0709,53.7331 39.8686,54.747 42.158,54.77 C47.489,54.707 53.439,50.893 54.146,46.152 C54.328,44.936 54.116,43.608 53.214,42.586 C50.7471,40.1348 46.7447,40.611 43.762,41.747 M29.415,37.381 C29.415,37.381 29.727,49.862 29.727,49.862 C29.727,49.862 30.525,42.791 30.525,42.791 C30.525,42.791 30.566,39.985 30.597,38.421 L29.415,37.381 M32.229,25.867 C30.1705,25.9316 27.6495,26.5638 26.596,28.515 C25.7653,30.2937 26.2938,32.4706 27.225,34.101 C28.719,36.506 28.818,36.282 31.243,38.595 C34.134,40.909 37.034,42.25 40.738,42.882 C43.1608,41.4122 45.9633,40.4255 48.826,40.634 C49.492,39.544 49.436,38.26 49.241,37.028 C46.547,36.66 43.084,36.247 41.167,34.14 C40.063,32.925 39.684,31.257 40.515,29.955 C40.804,29.503 41.192,29.118 41.563,28.722 C38.754,27.0101 35.5129,26.0271 32.229,25.867 "
               style=""
               stroke="none"
               fill-rule="evenodd"
               fill="#fff"
               fill-opacity="1"
               id="path4644" /></g></g></svg></g></g></svg>