<?xml version="1.0" encoding="UTF-8" standalone="no"?>
<svg
   xmlns:dc="http://purl.org/dc/elements/1.1/"
   xmlns:cc="http://creativecommons.org/ns#"
   xmlns:rdf="http://www.w3.org/1999/02/22-rdf-syntax-ns#"
   xmlns:svg="http://www.w3.org/2000/svg"
   xmlns="http://www.w3.org/2000/svg"
   xmlns:sodipodi="http://sodipodi.sourceforge.net/DTD/sodipodi-0.dtd"
   xmlns:inkscape="http://www.inkscape.org/namespaces/inkscape"
   version="1.1"
   id="CombinedIcon"
   x="0px"
   y="0px"
   width="32px"
   height="32px"
   viewBox="0 0 32 32"
   enable-background="new 0 0 100 100"
   xml:space="preserve"
   sodipodi:docname="ekolojik_mimari.svg"
   inkscape:version="0.92.0 r"><metadata
     id="metadata4632" /><defs
     id="defs4630" /><sodipodi:namedview
     pagecolor="#ffffff"
     bordercolor="#666666"
     borderopacity="1"
     objecttolerance="10"
     gridtolerance="10"
     guidetolerance="10"
     inkscape:pageopacity="0"
     inkscape:pageshadow="2"
     inkscape:window-width="640"
     inkscape:window-height="480"
     id="namedview4628"
     showgrid="false"
     inkscape:zoom="7.375"
     inkscape:cx="16"
     inkscape:cy="16"
     inkscape:window-x="0"
     inkscape:window-y="29"
     inkscape:window-maximized="0"
     inkscape:current-layer="CombinedIcon" /><g
     id="gmarkerbase"
     transform="matrix(1.0632768,0,0,1.0632768,-1.0124294,-1.0124294)"><svg
       id="markerbase"
       x="0px"
       y="0px"
       width="32"
       height="32"
       viewBox="0 0 32 32"
       enable-background="new 0 0 32 32"
       xml:space="preserve"
       version="0.48.4 r9939"
       docname="community.svg"
       class="injected-svg"><metadata
         id="metadata19"><rdf:RDF><cc:Work
             about=""><dc:format>image/svg+xml</dc:format><dc:type
               resource="http://purl.org/dc/dcmitype/StillImage"
               rdf:resource="http://purl.org/dc/dcmitype/StillImage" /><dc:title /></cc:Work></rdf:RDF></metadata><defs
         id="defs17" /><sodipodi:namedview
         pagecolor="#ffffff"
         bordercolor="#666666"
         borderopacity="1"
         objecttolerance="10"
         gridtolerance="10"
         guidetolerance="10"
         pageopacity="0"
         pageshadow="2"
         window-width="640"
         window-height="480"
         id="namedview15"
         showgrid="false"
         zoom="7.375"
         cx="16"
         cy="16"
         window-x="488"
         window-y="115"
         window-maximized="0"
         current-layer="Layer_1" /><path
         d="M 16,1 C 24.284,1 31,7.716 31,16 31,24.284 24.284,31 16,31 7.716,31 1,24.284 1,16 1,7.716 7.716,1 16,1 Z"
         id="path3"
         inkscape:connector-curvature="0"
         style="fill:#ff80ff" /></svg></g><g
     id="gmarkericon"
     transform="translate(5,5)"><g
       transform="scale(0.68)"
       id="g4624"><svg
         version="1.1"
         x="0px"
         y="0px"
         viewBox="0.146 4.189 100 91.775"
         enable-background="new 0.146 4.189 100 91.775"
         xml:space="preserve"
         id="svg4622"><g
           id="g4620"><path
             d="M99.511,38.569L50.993,4.606c-0.513-0.359-1.195-0.359-1.708,0L0.779,38.569c-0.323,0.228-0.542,0.573-0.611,0.961   c-0.068,0.389,0.021,0.789,0.247,1.112l6.606,9.434c0.291,0.415,0.751,0.635,1.222,0.635c0.294,0,0.592-0.086,0.852-0.269   l41.051-28.748l41.049,28.748c0.678,0.472,1.604,0.307,2.074-0.366l6.607-9.434c0.225-0.323,0.315-0.724,0.246-1.112   C100.055,39.143,99.835,38.797,99.511,38.569z"
             fill="#fff"
             id="path4614" /><path
             d="M87.456,53.667l-36.457-25.53c-0.512-0.358-1.195-0.358-1.707,0L12.641,53.803c-0.398,0.277-0.635,0.733-0.635,1.22v39.454   c0,0.82,0.667,1.488,1.49,1.488h25.502c0.822,0,1.489-0.668,1.489-1.488V60.095h19.32v34.382c0,0.82,0.666,1.488,1.489,1.488   h25.309c0.823,0,1.486-0.668,1.486-1.488V54.886C88.09,54.4,87.855,53.946,87.456,53.667z"
             fill="#fff"
             id="path4616" /><path
             d="M74.213,15.768l11.411,7.99c0.256,0.178,0.554,0.269,0.854,0.269c0.236,0,0.474-0.056,0.688-0.167   c0.49-0.256,0.801-0.766,0.801-1.321V5.678c0-0.822-0.667-1.488-1.489-1.488H75.065c-0.822,0-1.488,0.667-1.488,1.488v8.871   C73.576,15.033,73.812,15.489,74.213,15.768z"
             fill="#fff"
             id="path4618" /></g></svg></g></g></svg>