<?xml version="1.0" encoding="UTF-8" standalone="no"?>
<svg
   xmlns:dc="http://purl.org/dc/elements/1.1/"
   xmlns:cc="http://creativecommons.org/ns#"
   xmlns:rdf="http://www.w3.org/1999/02/22-rdf-syntax-ns#"
   xmlns:svg="http://www.w3.org/2000/svg"
   xmlns="http://www.w3.org/2000/svg"
   xmlns:sodipodi="http://sodipodi.sourceforge.net/DTD/sodipodi-0.dtd"
   xmlns:inkscape="http://www.inkscape.org/namespaces/inkscape"
   version="1.1"
   id="CombinedIcon"
   x="0px"
   y="0px"
   width="32px"
   height="32px"
   viewBox="0 0 32 32"
   enable-background="new 0 0 100 100"
   xml:space="preserve"
   sodipodi:docname="kolektif_inisiyatif.svg"
   inkscape:version="0.92.0 r"><metadata
     id="metadata4824" /><defs
     id="defs4822" /><sodipodi:namedview
     pagecolor="#ffffff"
     bordercolor="#666666"
     borderopacity="1"
     objecttolerance="10"
     gridtolerance="10"
     guidetolerance="10"
     inkscape:pageopacity="0"
     inkscape:pageshadow="2"
     inkscape:window-width="640"
     inkscape:window-height="480"
     id="namedview4820"
     showgrid="false"
     inkscape:zoom="7.375"
     inkscape:cx="16"
     inkscape:cy="16"
     inkscape:window-x="0"
     inkscape:window-y="29"
     inkscape:window-maximized="0"
     inkscape:current-layer="CombinedIcon" /><g
     id="gmarkerbase"
     transform="matrix(1.0632768,0,0,1.0632768,-1.0124294,-1.0124294)"><svg
       id="markerbase"
       x="0px"
       y="0px"
       width="32"
       height="32"
       viewBox="0 0 32 32"
       enable-background="new 0 0 32 32"
       xml:space="preserve"
       version="0.48.4 r9939"
       docname="community.svg"
       class="injected-svg"><metadata
         id="metadata19"><rdf:RDF><cc:Work
             about=""><dc:format>image/svg+xml</dc:format><dc:type
               resource="http://purl.org/dc/dcmitype/StillImage"
               rdf:resource="http://purl.org/dc/dcmitype/StillImage" /><dc:title /></cc:Work></rdf:RDF></metadata><defs
         id="defs17" /><sodipodi:namedview
         pagecolor="#ffffff"
         bordercolor="#666666"
         borderopacity="1"
         objecttolerance="10"
         gridtolerance="10"
         guidetolerance="10"
         pageopacity="0"
         pageshadow="2"
         window-width="640"
         window-height="480"
         id="namedview15"
         showgrid="false"
         zoom="7.375"
         cx="16"
         cy="16"
         window-x="488"
         window-y="115"
         window-maximized="0"
         current-layer="Layer_1" /><path
         d="M 16,1 C 24.284,1 31,7.716 31,16 31,24.284 24.284,31 16,31 7.716,31 1,24.284 1,16 1,7.716 7.716,1 16,1 Z"
         id="path3"
         inkscape:connector-curvature="0"
         style="fill:#e74c3c" /></svg></g><g
     id="gmarkericon"
     transform="translate(5,5)"><g
       transform="scale(0.68)"
       id="g4816"><svg
         version="1.1"
         x="0px"
         y="0px"
         viewBox="0 0 100 100"
         enable-background="new 0 0 100 100"
         xml:space="preserve"
         id="svg4814"><g
           id="g4812"><g
             id="g4810"><g
               id="g4808"><path
                 d="M62.317,9.359l-0.473-0.024c0,0-0.07-0.004-0.202-0.004c-1.074,0-6.585,0.251-11.685,5.125     c-1.364-1.173-6.36-5.123-11.831-5.123h-0.499v16.787l0.001,0.543l0.54-0.047c0.003,0,0.218-0.019,0.591-0.019     c1.913,0,6.791,0.433,10.799,4.44l0.409,0.409l0.344-0.465c0.033-0.045,3.462-4.548,11.508-4.548h0.497V9.833V9.359z"
                 fill="#fff"
                 id="path4782" /><circle
                 cx="49.973"
                 cy="5.438"
                 r="3.893"
                 fill="#fff"
                 id="circle4784" /><path
                 d="M91.354,40.349l-0.216-0.421c0,0-0.031-0.062-0.098-0.177c-0.536-0.93-3.509-5.577-10.281-7.557     c0.335-1.766,1.257-8.069-1.478-12.806l-0.249-0.432l-14.539,8.393l-0.471,0.272l0.312,0.445     c0.002,0.001,0.124,0.178,0.312,0.501c0.955,1.656,3.02,6.099,1.553,11.573l-0.149,0.558l0.573,0.065     c0.059,0.006,5.671,0.723,9.693,7.689l0.249,0.433l14.378-8.3L91.354,40.349z"
                 fill="#fff"
                 id="path4786" /><circle
                 cx="88.579"
                 cy="27.698"
                 r="3.893"
                 fill="#fff"
                 id="circle4788" /><path
                 d="M79.034,80.99l0.258-0.396c0,0,0.038-0.06,0.104-0.174c0.536-0.929,3.075-5.828,1.403-12.682     c1.696-0.594,7.616-2.945,10.352-7.685l0.25-0.432l-14.538-8.394l-0.471-0.271l-0.229,0.492     c-0.001,0.002-0.093,0.196-0.279,0.521c-0.956,1.656-3.771,5.666-9.245,7.132L66.08,59.25l0.23,0.53     c0.023,0.054,2.208,5.272-1.815,12.24l-0.249,0.432l14.378,8.302L79.034,80.99z"
                 fill="#fff"
                 id="path4790" /><circle
                 cx="88.602"
                 cy="72.262"
                 r="3.893"
                 fill="#fff"
                 id="circle4792" /><path
                 d="M37.677,90.641l0.473,0.024c0,0,0.07,0.002,0.203,0.003c1.072,0,6.584-0.251,11.685-5.126     c1.362,1.173,6.358,5.124,11.83,5.124h0.498l0.001-16.786l-0.001-0.543l-0.54,0.045c-0.003,0.001-0.217,0.021-0.591,0.021     c-1.911,0-6.792-0.435-10.798-4.442l-0.407-0.408l-0.346,0.465c-0.033,0.047-3.461,4.548-11.506,4.548h-0.5v16.603V90.641z"
                 fill="#fff"
                 id="path4794" /><circle
                 cx="50.02"
                 cy="94.562"
                 r="3.893"
                 fill="#fff"
                 id="circle4796" /><path
                 d="M8.642,59.647l0.216,0.422c0,0,0.032,0.062,0.097,0.179c0.537,0.929,3.509,5.575,10.282,7.556     c-0.335,1.766-1.258,8.068,1.476,12.807l0.25,0.433l14.54-8.394l0.47-0.271l-0.311-0.444c-0.002-0.003-0.125-0.18-0.312-0.503     c-0.956-1.655-3.019-6.099-1.552-11.571l0.15-0.559l-0.575-0.066c-0.058-0.005-5.67-0.723-9.692-7.69l-0.25-0.435L9.051,59.411     L8.642,59.647z"
                 fill="#fff"
                 id="path4798" /><circle
                 cx="11.417"
                 cy="72.298"
                 r="3.893"
                 fill="#fff"
                 id="circle4800" /><path
                 d="M20.966,19.007l-0.257,0.398c0,0-0.039,0.059-0.106,0.173c-0.536,0.929-3.074,5.828-1.403,12.682     c-1.697,0.593-7.617,2.944-10.353,7.681l-0.25,0.432l14.537,8.396l0.472,0.271l0.229-0.492c0.001-0.001,0.091-0.196,0.278-0.521     c0.957-1.656,3.772-5.664,9.246-7.129l0.559-0.149l-0.23-0.53c-0.023-0.053-2.208-5.273,1.815-12.239l0.251-0.434l-14.376-8.302     L20.966,19.007z"
                 fill="#fff"
                 id="path4802" /><circle
                 cx="11.397"
                 cy="27.735"
                 r="3.893"
                 fill="#fff"
                 id="circle4804" /><circle
                 cx="49.999"
                 cy="50"
                 r="11.413"
                 fill="#fff"
                 id="circle4806" /></g></g></g></svg></g></g></svg>