<?xml version="1.0" encoding="UTF-8" standalone="no"?>
<svg
   xmlns:dc="http://purl.org/dc/elements/1.1/"
   xmlns:cc="http://creativecommons.org/ns#"
   xmlns:rdf="http://www.w3.org/1999/02/22-rdf-syntax-ns#"
   xmlns:svg="http://www.w3.org/2000/svg"
   xmlns="http://www.w3.org/2000/svg"
   xmlns:sodipodi="http://sodipodi.sourceforge.net/DTD/sodipodi-0.dtd"
   xmlns:inkscape="http://www.inkscape.org/namespaces/inkscape"
   version="1.1"
   id="CombinedIcon"
   x="0px"
   y="0px"
   width="32px"
   height="32px"
   viewBox="0 0 32 32"
   enable-background="new 0 0 100 100"
   xml:space="preserve"
   sodipodi:docname="muze.svg"
   inkscape:version="0.92.0 r"><metadata
     id="metadata4892" /><defs
     id="defs4890" /><sodipodi:namedview
     pagecolor="#ffffff"
     bordercolor="#666666"
     borderopacity="1"
     objecttolerance="10"
     gridtolerance="10"
     guidetolerance="10"
     inkscape:pageopacity="0"
     inkscape:pageshadow="2"
     inkscape:window-width="640"
     inkscape:window-height="480"
     id="namedview4888"
     showgrid="false"
     inkscape:zoom="7.375"
     inkscape:cx="16"
     inkscape:cy="16"
     inkscape:window-x="0"
     inkscape:window-y="29"
     inkscape:window-maximized="0"
     inkscape:current-layer="CombinedIcon" /><g
     id="gmarkerbase"
     transform="matrix(1.0723164,0,0,1.0723164,-1.1570621,-1.1570621)"><svg
       id="markerbase"
       x="0px"
       y="0px"
       width="32"
       height="32"
       viewBox="0 0 32 32"
       enable-background="new 0 0 32 32"
       xml:space="preserve"
       version="0.48.4 r9939"
       docname="community.svg"
       class="injected-svg"><metadata
         id="metadata19"><rdf:RDF><cc:Work
             about=""><dc:format>image/svg+xml</dc:format><dc:type
               resource="http://purl.org/dc/dcmitype/StillImage"
               rdf:resource="http://purl.org/dc/dcmitype/StillImage" /><dc:title /></cc:Work></rdf:RDF></metadata><defs
         id="defs17" /><sodipodi:namedview
         pagecolor="#ffffff"
         bordercolor="#666666"
         borderopacity="1"
         objecttolerance="10"
         gridtolerance="10"
         guidetolerance="10"
         pageopacity="0"
         pageshadow="2"
         window-width="640"
         window-height="480"
         id="namedview15"
         showgrid="false"
         zoom="7.375"
         cx="16"
         cy="16"
         window-x="488"
         window-y="115"
         window-maximized="0"
         current-layer="Layer_1" /><path
         d="M 16,1 C 24.284,1 31,7.716 31,16 31,24.284 24.284,31 16,31 7.716,31 1,24.284 1,16 1,7.716 7.716,1 16,1 Z"
         id="path3"
         inkscape:connector-curvature="0"
         style="fill:#e74c3c" /></svg></g><g
     id="gmarkericon"
     transform="translate(5,5)"><g
       transform="scale(0.68)"
       id="g4884"><svg
         version="1.1"
         x="0px"
         y="0px"
         viewBox="0 0 100.001 86.091"
         enable-background="new 0 0 100.001 86.091"
         xml:space="preserve"
         id="svg4882"><circle
           fill="#fff"
           cx="33.337"
           cy="57.973"
           r="9.373"
           id="circle4862" /><circle
           fill="#fff"
           cx="66.663"
           cy="51.724"
           r="9.373"
           id="circle4864" /><path
           fill="#fff"
           d="M83.325,13.193H50H16.675c-2.296,0-4.166,1.869-4.166,4.166v18.746v18.744c0,2.299,1.87,4.166,4.166,4.166  h3.177c-0.027-0.346-0.053-0.688-0.053-1.041c0-1.074,0.141-2.12,0.378-3.125h-3.502V36.104V17.358H50h33.325v18.746v18.744h-3.503  c-0.355,1.501-0.96,2.905-1.77,4.166h5.272c2.297,0,4.166-1.867,4.166-4.166V36.104V17.358  C87.491,15.062,85.622,13.193,83.325,13.193z"
           id="path4866" /><circle
           fill="#fff"
           cx="70.818"
           cy="25.69"
           r="4.166"
           id="circle4868" /><path
           fill="#fff"
           d="M28.804,41.026l-7.363-7.363l7.363-7.363l7.365,7.363L28.804,41.026z M24.386,33.663l4.418,4.418l4.42-4.418  l-4.42-4.418L24.386,33.663z"
           id="path4870" /><path
           fill="#fff"
           d="M39.576,41.832c-0.862,0-1.562-0.7-1.562-1.562s0.7-1.562,1.562-1.562  c7.613-0.002,19.041-1.471,20.607-4.729c0.378-0.787,0.042-1.847-0.999-3.146c-0.539-0.673-0.429-1.658,0.244-2.197  c0.673-0.535,1.655-0.429,2.196,0.244c2.311,2.889,2.022,5.104,1.373,6.452C60.023,41.519,42.964,41.832,39.576,41.832z"
           id="path4872" /><path
           fill="#fff"
           d="M50.824,24.441c0,0-3.751,0-3.751-3.751c0-0.689-0.558-1.249-1.249-1.249S44.575,20,44.575,20.69  c0,3.751-3.75,3.751-3.75,3.751c-0.689,0-1.249,0.557-1.249,1.249c0,0.691,0.56,1.249,1.249,1.249c0,0,3.75,0,3.75,3.751  c0,0.689,0.558,1.249,1.249,1.249s1.249-0.56,1.249-1.249c0-3.751,3.751-3.751,3.751-3.751c0.689,0,1.248-0.557,1.248-1.249  C52.072,24.998,51.514,24.441,50.824,24.441z"
           id="path4874" /><path
           fill="#fff"
           d="M66.663,65.262c-18.746,0-18.746,20.829-18.746,20.829h18.746h18.745  C85.408,86.091,85.408,65.262,66.663,65.262z"
           id="path4876" /><path
           fill="#fff"
           d="M98.576,54.177c0.61-2.567,1.302-5.479,1.41-7.555c0.126-2.497-0.612-4.901-1.266-7.022  c-0.419-1.363-0.815-2.648-0.815-3.497s0.396-2.134,0.815-3.497c0.653-2.122,1.392-4.525,1.266-7.025  c-0.108-2.073-0.8-4.985-1.41-7.552c-0.278-1.176-0.539-2.272-0.708-3.149c-0.192-0.999,0.189-2.819,0.527-4.424  c0.72-3.415,1.533-7.284-1.354-9.369c-3.342-2.404-8.332-0.356-13.16,1.623c-2.573,1.058-5.233,2.15-6.804,2.15  c-1.683,0-4.14-0.982-6.518-1.934c-2.741-1.097-5.579-2.231-8.062-2.231c-2.575,0-4.916,1.171-7.18,2.303  c-1.914,0.956-3.723,1.861-5.313,1.863c-1.588-0.002-3.396-0.907-5.311-1.863c-2.264-1.131-4.605-2.303-7.18-2.303  c-2.483,0-5.321,1.135-8.063,2.231c-2.377,0.952-4.835,1.934-6.517,1.934c-1.568,0-4.229-1.092-6.802-2.148  C11.303,0.732,6.313-1.314,2.97,1.088C0.081,3.173,0.895,7.04,1.615,10.453c0.338,1.607,0.722,3.427,0.527,4.43  c-0.169,0.88-0.431,1.985-0.712,3.165c-0.608,2.563-1.298,5.465-1.405,7.536c-0.126,2.498,0.614,4.9,1.265,7.021  c0.419,1.363,0.815,2.65,0.815,3.499h-0.01c0,0.848-0.396,2.134-0.815,3.497c-0.653,2.121-1.391,4.525-1.265,7.026  c0.108,2.071,0.799,4.983,1.41,7.551c0.278,1.176,0.539,2.274,0.708,3.148c0.193,1.001-0.189,2.819-0.527,4.426  c-0.72,3.413-1.534,7.282,1.355,9.369c1.08,0.777,2.331,1.09,3.694,1.09c2.854,0,6.197-1.375,9.466-2.713  c2.573-1.058,5.233-2.152,6.804-2.152c0.226,0,0.498,0.058,0.75,0.094c-1.137-1.159-2.062-2.522-2.726-4.027  c-1.951,0.402-4.131,1.294-6.411,2.229c-3.242,1.33-7.679,3.156-9.141,2.099c-0.691-0.5-0.081-3.396,0.285-5.13  c0.439-2.087,0.893-4.247,0.541-6.073c-0.177-0.924-0.451-2.083-0.746-3.319c-0.568-2.396-1.212-5.113-1.3-6.806  c-0.092-1.766,0.506-3.708,1.086-5.584c0.513-1.672,0.999-3.249,0.999-4.723h0.01c0-1.475-0.486-3.053-0.999-4.723  c-0.578-1.879-1.176-3.822-1.086-5.583c0.085-1.69,0.73-4.397,1.297-6.785c0.295-1.247,0.572-2.413,0.749-3.342  c0.354-1.825-0.102-3.985-0.541-6.076C5.327,7.864,4.717,4.965,5.406,4.469c1.458-1.062,5.901,0.769,9.143,2.097  c3.082,1.265,5.994,2.461,8.384,2.461c2.483,0,5.321-1.135,8.062-2.231c2.378-0.952,4.835-1.935,6.517-1.935  c1.591,0,3.401,0.905,5.317,1.863c2.26,1.129,4.599,2.298,7.17,2.303c0.002,0,0.004,0,0.004,0c0.002,0,0.004,0,0.006,0  c2.571-0.004,4.908-1.174,7.169-2.303c1.916-0.958,3.727-1.863,5.317-1.863c1.682,0,4.139,0.982,6.517,1.935  c2.742,1.096,5.58,2.231,8.063,2.231c2.392,0,5.303-1.196,8.386-2.461c3.242-1.33,7.681-3.159,9.141-2.097  c0.692,0.499,0.082,3.397-0.284,5.13c-0.439,2.087-0.894,4.247-0.541,6.072c0.177,0.925,0.451,2.083,0.746,3.321  c0.567,2.396,1.213,5.111,1.3,6.804c0.092,1.766-0.507,3.708-1.086,5.585c-0.513,1.672-0.999,3.249-0.999,4.723  s0.486,3.051,0.999,4.723c0.579,1.877,1.178,3.819,1.086,5.584c-0.087,1.692-0.732,4.409-1.3,6.806  c-0.295,1.236-0.569,2.396-0.748,3.319c-0.351,1.826,0.104,3.986,0.543,6.073c0.366,1.733,0.977,4.63,0.284,5.13  c-1.458,1.062-5.898-0.769-9.141-2.099c-3.083-1.266-5.994-2.461-8.386-2.461c-0.15,0-0.312,0.04-0.464,0.049  c3.057,1.439,5.645,3.62,7.709,6.447c3.128,1.281,6.297,2.534,9.024,2.534c1.363,0,2.616-0.312,3.694-1.09  c2.888-2.087,2.074-5.956,1.354-9.369c-0.338-1.606-0.72-3.425-0.529-4.426C98.037,56.452,98.298,55.353,98.576,54.177z"
           id="path4878" /><path
           fill="#fff"
           d="M45.83,75.51c-2.791-2.262-6.765-3.999-12.493-3.999c-16.663,0-18.746,14.58-18.746,14.58h18.746h10.414  C43.751,85.867,43.784,80.904,45.83,75.51z"
           id="path4880" /></svg></g></g></svg>