<?xml version="1.0" encoding="UTF-8" standalone="no"?>
<svg
   xmlns:dc="http://purl.org/dc/elements/1.1/"
   xmlns:cc="http://creativecommons.org/ns#"
   xmlns:rdf="http://www.w3.org/1999/02/22-rdf-syntax-ns#"
   xmlns:svg="http://www.w3.org/2000/svg"
   xmlns="http://www.w3.org/2000/svg"
   xmlns:sodipodi="http://sodipodi.sourceforge.net/DTD/sodipodi-0.dtd"
   xmlns:inkscape="http://www.inkscape.org/namespaces/inkscape"
   version="1.1"
   id="CombinedIcon"
   x="0px"
   y="0px"
   width="32px"
   height="32px"
   viewBox="0 0 32 32"
   enable-background="new 0 0 100 100"
   xml:space="preserve"
   sodipodi:docname="search.svg"
   inkscape:version="0.92.0 r"><metadata
     id="metadata20" /><defs
     id="defs18" /><sodipodi:namedview
     pagecolor="#ffffff"
     bordercolor="#666666"
     borderopacity="1"
     objecttolerance="10"
     gridtolerance="10"
     guidetolerance="10"
     inkscape:pageopacity="0"
     inkscape:pageshadow="2"
     inkscape:window-width="1920"
     inkscape:window-height="1009"
     id="namedview16"
     showgrid="false"
     inkscape:zoom="14.75"
     inkscape:cx="-9.4573435"
     inkscape:cy="14.13123"
     inkscape:window-x="0"
     inkscape:window-y="29"
     inkscape:window-maximized="1"
     inkscape:current-layer="CombinedIcon" /><g
     id="gmarkerbase"
     style="fill:#455a64"
     transform="matrix(1.0677966,0,0,1.0677966,-1.0847458,-1.0847458)"><svg
       id="markerbase"
       x="0px"
       y="0px"
       width="32"
       height="32"
       viewBox="0 0 32 32"
       enable-background="new 0 0 32 32"
       xml:space="preserve"
       version="0.48.4 r9939"
       docname="community.svg"
       class="injected-svg"
       style="fill:#455a64"><metadata
         id="metadata19"><rdf:RDF><cc:Work
             about=""><dc:format>image/svg+xml</dc:format><dc:type
               resource="http://purl.org/dc/dcmitype/StillImage"
               rdf:resource="http://purl.org/dc/dcmitype/StillImage" /><dc:title /></cc:Work></rdf:RDF></metadata><defs
         id="defs17" /><sodipodi:namedview
         pagecolor="#ffffff"
         bordercolor="#666666"
         borderopacity="1"
         objecttolerance="10"
         gridtolerance="10"
         guidetolerance="10"
         pageopacity="0"
         pageshadow="2"
         window-width="640"
         window-height="480"
         id="namedview15"
         showgrid="false"
         zoom="7.375"
         cx="16"
         cy="16"
         window-x="488"
         window-y="115"
         window-maximized="0"
         current-layer="Layer_1" /><path
         d="M 16,1 C 24.284,1 31,7.716 31,16 31,24.284 24.284,31 16,31 7.716,31 1,24.284 1,16 1,7.716 7.716,1 16,1 Z"
         id="path3"
         style="fill:#455a64"
         inkscape:connector-curvature="0" /></svg></g><path
     inkscape:connector-curvature="0"
     d="m 19.779869,17.736785 -0.881073,-1e-6 -0.312249,-0.301154 c 1.092975,-1.271421 1.750991,-2.922038 1.750991,-4.717642 1e-6,-4.0038677 -3.24547,-7.2493366 -7.249332,-7.2493366 -4.0038646,-3e-7 -7.2493341,3.2454695 -7.249335,7.2493366 -2e-7,4.003861 3.2454697,7.249331 7.249336,7.249332 1.795603,0 3.446221,-0.658016 4.717643,-1.750993 l 0.301154,0.31225 v 0.881072 l 5.576379,5.565285 1.661772,-1.661771 z m -6.69169,-1e-6 c -2.777057,1e-6 -5.018773,-2.241716 -5.0187731,-5.018767 8e-7,-2.7770579 2.2417171,-5.0187732 5.0187731,-5.0187733 2.777051,4e-7 5.018767,2.2417163 5.018768,5.0187723 0,2.777052 -2.241716,5.018768 -5.018768,5.018768 z"
     id="path895"
     style="fill:#ffffff;stroke-width:1.11528182" /></svg>