<svg xmlns="http://www.w3.org/2000/svg" xmlns:xlink="http://www.w3.org/1999/xlink" version="1.1" id="CombinedIcon" x="0px" y="0px" width="32px" height="32px" viewBox="0 0 32 32" enable-background="new 0 0 100 100" xml:space="preserve"><g id="gmarkerbase"><svg xmlns:dc="http://purl.org/dc/elements/1.1/" xmlns:cc="http://creativecommons.org/ns#" xmlns:rdf="http://www.w3.org/1999/02/22-rdf-syntax-ns#" xmlns:svg="http://www.w3.org/2000/svg" xmlns="http://www.w3.org/2000/svg" xmlns:sodipodi="http://sodipodi.sourceforge.net/DTD/sodipodi-0.dtd" xmlns:inkscape="http://www.inkscape.org/namespaces/inkscape" id="markerbase" x="0px" y="0px" width="32px" height="32px" viewBox="0 0 32 32" enable-background="new 0 0 32 32" xml:space="preserve" version="0.48.4 r9939" docname="community.svg" class="injected-svg" style=""><metadata id="metadata19"><rdf:RDF><cc:Work about=""><dc:format>image/svg+xml</dc:format><dc:type resource="http://purl.org/dc/dcmitype/StillImage"/><dc:title/></cc:Work></rdf:RDF></metadata><defs id="defs17"/><sodipodi:namedview pagecolor="#ffffff" bordercolor="#666666" borderopacity="1" objecttolerance="10" gridtolerance="10" guidetolerance="10" pageopacity="0" pageshadow="2" window-width="640" window-height="480" id="namedview15" showgrid="false" zoom="7.375" cx="16" cy="16" window-x="488" window-y="115" window-maximized="0" current-layer="Layer_1"/> <path fill="#f39c12" d="M16,1c8.284,0,15,6.716,15,15s-6.716,15-15,15S1,24.284,1,16S7.716,1,16,1z" id="path3"/> </svg></g><g id="gmarkericon" transform="translate(5,5)"><g transform="scale(0.68)"><svg version="1.1" xmlns="http://www.w3.org/2000/svg" xmlns:xlink="http://www.w3.org/1999/xlink" x="0px" y="0px" viewBox="-11.364 3.414 100 93.273" enable-background="new -11.364 3.414 100 93.273" xml:space="preserve"><path d="M74.399,3.414H2.873l-14.237,24.74v8.58c0,4.261,2.435,7.96,5.986,9.798v50.155h53.753V41.91
	c1.861,3.482,5.529,5.855,9.739,5.855c4.219,0,7.887-2.373,9.748-5.855c1.853,3.482,5.521,5.855,9.739,5.855l0,0v48.922h5.048
	V46.532c3.552-1.838,5.986-5.537,5.986-9.798v-8.58L74.399,3.414z M11.434,29.333L18.483,7.88h11.205l-2.334,21.329v6.133
	c0,4.389-3.567,7.956-7.956,7.956c-4.389,0-7.956-3.567-7.956-7.956v-6.009H11.434z M43.623,65.096H-0.329V47.765
	c4.219,0,7.886-2.373,9.74-5.855c1.861,3.482,5.529,5.855,9.747,5.855c4.21,0,7.878-2.373,9.74-5.855
	c1.853,3.482,5.529,5.855,9.739,5.855c1.799,0,3.489-0.45,4.986-1.218V65.096L43.623,65.096z M65.831,35.342
	c0,4.389-3.566,7.956-7.956,7.956c-4.389,0-7.956-3.567-7.956-7.956v-6.133L47.585,7.88H58.79l7.049,21.453v6.009H65.831z" fill="#fff"/></svg></g></g></svg>