<svg xmlns="http://www.w3.org/2000/svg" xmlns:xlink="http://www.w3.org/1999/xlink" version="1.1" id="CombinedIcon" x="0px" y="0px" width="32px" height="32px" viewBox="0 0 32 32" enable-background="new 0 0 100 100" xml:space="preserve"><g id="gmarkerbase"><svg xmlns:dc="http://purl.org/dc/elements/1.1/" xmlns:cc="http://creativecommons.org/ns#" xmlns:rdf="http://www.w3.org/1999/02/22-rdf-syntax-ns#" xmlns:svg="http://www.w3.org/2000/svg" xmlns="http://www.w3.org/2000/svg" xmlns:sodipodi="http://sodipodi.sourceforge.net/DTD/sodipodi-0.dtd" xmlns:inkscape="http://www.inkscape.org/namespaces/inkscape" id="markerbase" x="0px" y="0px" width="32px" height="32px" viewBox="0 0 32 32" enable-background="new 0 0 32 32" xml:space="preserve" version="0.48.4 r9939" docname="community.svg" class="injected-svg" style=""><metadata id="metadata19"><rdf:RDF><cc:Work about=""><dc:format>image/svg+xml</dc:format><dc:type resource="http://purl.org/dc/dcmitype/StillImage"/><dc:title/></cc:Work></rdf:RDF></metadata><defs id="defs17"/><sodipodi:namedview pagecolor="#ffffff" bordercolor="#666666" borderopacity="1" objecttolerance="10" gridtolerance="10" guidetolerance="10" pageopacity="0" pageshadow="2" window-width="640" window-height="480" id="namedview15" showgrid="false" zoom="7.375" cx="16" cy="16" window-x="488" window-y="115" window-maximized="0" current-layer="Layer_1"/> <path fill="#e74c3c" d="M16,1c8.284,0,15,6.716,15,15s-6.716,15-15,15S1,24.284,1,16S7.716,1,16,1z" id="path3"/> </svg></g><g id="gmarkericon" transform="translate(5,5)"><g transform="scale(0.68)"><svg xmlns="http://www.w3.org/2000/svg" xmlns:xlink="http://www.w3.org/1999/xlink" version="1.1" x="0px" y="0px" viewBox="0 0 64 64" enable-background="new 0 0 64 64" xml:space="preserve"><g><path d="M32.213,30.931c1.313,1.742,12.943-2.2,12.943-14.364c0-3.976-3.224-7.199-7.199-7.199c-2.351,0-4.431,1.13-5.744,2.872   c-1.314-1.742-3.394-2.872-5.743-2.872c-3.976,0-7.199,3.223-7.199,7.199C19.271,30.543,30.899,32.672,32.213,30.931z" fill="#fff"/><path d="M31.572,10.592l1.281,0.303c0.06-0.252,1.4-6.208-3.964-10.689l-0.843,1.01C32.769,5.162,31.624,10.372,31.572,10.592z" fill="#fff"/><path d="M45.356,2.743c-10.607-6.119-12.401,1.02-12.401,1.02C38.258,9.636,45.356,2.743,45.356,2.743z" fill="#fff"/><path d="M58.116,37.004c0.124-2.325-0.004-5.209-0.103-6.849l2.678-2.678l-15.028-5.511c-0.987,3.115-2.705,5.324-4.233,6.773   c-2.81,2.666-6.062,3.86-8.038,3.86c-0.461,0-0.841-0.064-1.153-0.166c-0.478,0.194-1.061,0.293-1.734,0.293   c-2.962,0-8.186-2.084-10.876-7.833L4.997,39.526c0,0-1.77,1.096-1.686,5.058c0.085,3.958,4.298,6.319,4.298,6.319l28.734,12.891   l24.18-24.184C61.075,37.48,58.451,37.049,58.116,37.004z M9.294,48.206c0,0-3.118-0.758-2.949-4.13   c0.118-2.361,1.937-2.779,1.937-2.779l26.416,11.154l0.224,7.479L9.294,48.206z M56.981,38.099L35.945,59.137l-0.203-6.709   L57.018,31.15C57.118,33.168,57.202,36.12,56.981,38.099z" fill="#fff"/></g></svg></g></g></svg>