<svg xmlns="http://www.w3.org/2000/svg" xmlns:xlink="http://www.w3.org/1999/xlink" version="1.1" id="CombinedIcon" x="0px" y="0px" width="32px" height="32px" viewBox="0 0 32 32" enable-background="new 0 0 100 100" xml:space="preserve"><g id='gmarkerbase'><svg xmlns:dc="http://purl.org/dc/elements/1.1/" xmlns:cc="http://creativecommons.org/ns#" xmlns:rdf="http://www.w3.org/1999/02/22-rdf-syntax-ns#" xmlns:svg="http://www.w3.org/2000/svg" xmlns="http://www.w3.org/2000/svg" xmlns:sodipodi="http://sodipodi.sourceforge.net/DTD/sodipodi-0.dtd" xmlns:inkscape="http://www.inkscape.org/namespaces/inkscape" id="markerbase" x="0px" y="0px" width="32px" height="32px" viewBox="0 0 32 32" enable-background="new 0 0 32 32" xml:space="preserve" version="0.48.4 r9939" docname="community.svg" class="injected-svg" style=""><metadata id="metadata19"><rdf:RDF><cc:Work about=""><dc:format>image/svg+xml</dc:format><dc:type resource="http://purl.org/dc/dcmitype/StillImage"></dc:type><dc:title></dc:title></cc:Work></rdf:RDF></metadata><defs id="defs17"></defs><sodipodi:namedview pagecolor="#ffffff" bordercolor="#666666" borderopacity="1" objecttolerance="10" gridtolerance="10" guidetolerance="10" pageopacity="0" pageshadow="2" window-width="640" window-height="480" id="namedview15" showgrid="false" zoom="7.375" cx="16" cy="16" window-x="488" window-y="115" window-maximized="0" current-layer="Layer_1"></sodipodi:namedview>n<path fill="#39E6AF" d="M16,1c8.284,0,15,6.716,15,15s-6.716,15-15,15S1,24.284,1,16S7.716,1,16,1z" id="path3"></path>nn</svg></g><g id='gmarkericon' transform='translate(5,5)'><g transform='scale(0.68)'><svg xmlns:dc="http://purl.org/dc/elements/1.1/" xmlns:cc="http://creativecommons.org/ns#" xmlns:rdf="http://www.w3.org/1999/02/22-rdf-syntax-ns#" xmlns:svg="http://www.w3.org/2000/svg" xmlns="http://www.w3.org/2000/svg" version="1.1" viewBox="0 0 100.00001 100" xml:space="preserve" x="0px" y="0px"><path d="m 81.25,5 c -1.018076,-0.069105 -4.418052,2.8298392 -11.375,3.625 -3.670792,0.3392998 -8.70715,0.806281 -13.34375,3.1875 -6.980684,3.586138 -6.987337,7.923762 -7.125,12.0625 0.158867,2.360879 1.145832,3.24784 2.0625,3.8125 -2.982041,4.782418 -1.40625,11.65625 -1.40625,11.65625 0,0 -0.08479,-4.964082 2.625,-9.625 1.819349,1.843919 4.518757,2.37638 6.46875,2.5625 C 69.394717,32.03051 79.612545,18.147123 81.59375,5.59375 81.599639,5.199854 81.484941,5.0159474 81.25,5 z M 25.96875,15.21875 c -0.235302,0.0162 -0.13797,0.545482 0.28125,1.9375 1.412819,4.665418 3.214385,9.288452 6.15625,13.21875 1.588733,2.07882 4.686189,4.419551 7.8125,4.65625 5.768528,0.4599 5.758026,-2.23818 6,-2.0625 0.916614,1.81548 1.443842,3.844241 1.53125,5.875 0.38034,-2.512439 0.308967,-5.227611 -0.875,-7.53125 C 47.668205,30.81678 48.634652,30.736538 48.6875,28 48.847448,24.605381 46.876079,21.04738 43.78125,19.9375 39.985844,18.580841 34.178661,18.05172 32.5,17.8125 28.627469,17.51451 26.486413,15.183101 25.96875,15.21875 z M 18.125,40.375 c -0.621053,0 -1.245472,0.28434 -1.65625,0.75 -0.410796,0.46584 -0.608794,1.10261 -0.53125,1.71875 l 1.1875,9.3125 65.75,0 1.1875,-9.3125 C 84.14006,42.22761 83.942046,41.59084 83.53125,41.125 83.120473,40.65934 82.496054,40.375 81.875,40.375 l -63.75,0 z m 1.71875,14.34375 c 0.0027,0.13248 0.0051,0.245041 0.03125,0.375 l 7.5,38.125 C 27.568194,94.208389 28.491551,94.99892 29.5,95 l 41,0 c 1.00845,0 1.931806,-0.791611 2.125,-1.78125 l 7.5,-38.125 c 0.02608,-0.129959 0.0289,-0.24252 0.03125,-0.375 l -60.3125,0 z" transform="translate(0,-5e-6)" style="text-indent:0;text-transform:none;direction:ltr;block-progression:tb;baseline-shift:baseline;color:#ffffff;enable-background:accumulate;" fill="#ffffff" fill-opacity="1" fill-rule="nonzero" stroke="none" marker="none" visibility="visible" display="inline" overflow="visible"></path></svg></g></g></svg>