<?xml version="1.0" encoding="UTF-8" standalone="no"?>
<svg
   xmlns:dc="http://purl.org/dc/elements/1.1/"
   xmlns:cc="http://creativecommons.org/ns#"
   xmlns:rdf="http://www.w3.org/1999/02/22-rdf-syntax-ns#"
   xmlns:svg="http://www.w3.org/2000/svg"
   xmlns="http://www.w3.org/2000/svg"
   xmlns:sodipodi="http://sodipodi.sourceforge.net/DTD/sodipodi-0.dtd"
   xmlns:inkscape="http://www.inkscape.org/namespaces/inkscape"
   version="1.1"
   id="CombinedIcon"
   x="0px"
   y="0px"
   width="32px"
   height="32px"
   viewBox="0 0 32 32"
   enable-background="new 0 0 100 100"
   xml:space="preserve"
   sodipodi:docname="stk.svg"
   inkscape:version="0.92.0 r"><metadata
     id="metadata6036" /><defs
     id="defs6034" /><sodipodi:namedview
     pagecolor="#ffffff"
     bordercolor="#666666"
     borderopacity="1"
     objecttolerance="10"
     gridtolerance="10"
     guidetolerance="10"
     inkscape:pageopacity="0"
     inkscape:pageshadow="2"
     inkscape:window-width="773"
     inkscape:window-height="480"
     id="namedview6032"
     showgrid="false"
     inkscape:zoom="7.375"
     inkscape:cx="16"
     inkscape:cy="16"
     inkscape:window-x="0"
     inkscape:window-y="29"
     inkscape:window-maximized="0"
     inkscape:current-layer="CombinedIcon" /><g
     id="gmarkerbase"
     transform="matrix(1.0723164,0,0,1.0723164,-1.1570621,-1.1570621)"><svg
       id="markerbase"
       x="0px"
       y="0px"
       width="32"
       height="32"
       viewBox="0 0 32 32"
       enable-background="new 0 0 32 32"
       xml:space="preserve"
       version="0.48.4 r9939"
       docname="community.svg"
       class="injected-svg"><metadata
         id="metadata19"><rdf:RDF><cc:Work
             about=""><dc:format>image/svg+xml</dc:format><dc:type
               resource="http://purl.org/dc/dcmitype/StillImage"
               rdf:resource="http://purl.org/dc/dcmitype/StillImage" /><dc:title /></cc:Work></rdf:RDF></metadata><defs
         id="defs17" /><sodipodi:namedview
         pagecolor="#ffffff"
         bordercolor="#666666"
         borderopacity="1"
         objecttolerance="10"
         gridtolerance="10"
         guidetolerance="10"
         pageopacity="0"
         pageshadow="2"
         window-width="640"
         window-height="480"
         id="namedview15"
         showgrid="false"
         zoom="7.375"
         cx="16"
         cy="16"
         window-x="488"
         window-y="115"
         window-maximized="0"
         current-layer="Layer_1" /><path
         d="M 16,1 C 24.284,1 31,7.716 31,16 31,24.284 24.284,31 16,31 7.716,31 1,24.284 1,16 1,7.716 7.716,1 16,1 Z"
         id="path3"
         inkscape:connector-curvature="0"
         style="fill:#0080ff" /></svg></g><g
     id="gmarkericon"
     transform="translate(5,5)"><g
       transform="scale(0.68)"
       id="g6028"><svg
         version="1.1"
         x="0px"
         y="0px"
         viewBox="0 0 100 100"
         enable-background="new 0 0 100 100"
         xml:space="preserve"
         id="svg6026"><g
           id="g6024"><g
             id="g6022"><g
               id="g6020"><g
                 id="g6018"><g
                   id="g6016"><path
                     fill="#fff"
                     d="M49.3,8.9c6.8,0,12.3,5.5,12.3,12.3s-5.5,12.3-12.3,12.3S37,28,37,21.2S42.5,8.9,49.3,8.9z"
                     id="path6002" /><path
                     fill="#fff"
                     d="M67.3,52.4c-0.6,0.1-1.3,0.3-1.9,0.4c-9.5,2.9-16.6,11.7-16.6,22.3c0,3.3,0.7,6.5,2,9.4       c-6.8,0.2-13.7-0.7-18.5-2.7c-1.6-0.6-2.9-1.4-3.9-2.3c-0.9-0.9-1.6-1.7-2-2.9c-0.4-1-0.7-2.2-0.7-3.5c0-0.1,0-0.1,0-0.2       c0-4.4,0.7-8.5,1.8-12.1c2.5-8.1,7.3-14.2,12.4-17.6c1.6-1.2,3.2-1.9,4.8-2.5c1.6-0.6,3.2-0.9,4.6-0.9c1.7,0,3.5,0.4,5.3,1.1       c1.6,0.6,3,1.4,4.6,2.6C62.3,45.6,65,48.7,67.3,52.4z"
                     id="path6004" /><path
                     fill="#fff"
                     d="M94.1,66.2c0,0.6,0,1-0.1,1.6c-2.9-8.7-10.8-15-20.4-15.7c-0.7-1.7-1.6-3.2-2.6-4.6       c-2-3.2-4.5-5.9-7.1-8c3.1-2,6.2-3.2,9-3.2c6.6,0,15.3,6.4,19.2,17.5C93.3,57.4,94.1,61.5,94.1,66.2z"
                     id="path6006" /><path
                     fill="#fff"
                     d="M63.7,71.1c-2,3.5,0.9,6.8,3.2,9c1.3,1.3,4.9,4.3,5.6,4.9c0.5-0.4,2-1.7,3.5-2.9c0.9-0.7,1.7-1.5,2.2-2       c2.3-2.3,5.2-5.5,3.2-9c-1.9-3.2-6.8-3.3-8.8-0.3C70.5,67.9,65.6,67.9,63.7,71.1z M89.3,73.5c0.1,0.6,0.1,1,0.1,1.6       c0,1.6-0.1,3-0.6,4.5c-2,7.4-8.7,12.9-16.8,12.9c-3.7,0-7.1-1.1-10-3.2c-2-1.3-3.6-3.2-4.9-5.2c-1.6-2.6-2.6-5.8-2.6-8.9       c0-8.7,6.5-15.9,14.7-17.2c0.3-0.1,0.6-0.1,0.9-0.1c0.7-0.1,1.3-0.1,1.9-0.1c1.4,0,2.9,0.3,4.2,0.6       C83.4,59.9,88.7,66.2,89.3,73.5z"
                     id="path6008" /><path
                     fill="#fff"
                     d="M35.5,39c-2.9,2.2-5.5,4.9-7.7,8.4c-2.4,3.6-4.3,7.7-5.6,12c-1.4,4.5-2.1,9.1-2,13.4       c0,1.2,0,2.2,0.3,3.2c-5.2-0.6-9.8-2-12.1-4.2c-1.7-1.6-2.5-3.5-2.5-5.8c0-18.5,12.4-29.9,21.3-29.9       C29.8,36.1,32.8,37.1,35.5,39z"
                     id="path6010" /><path
                     fill="#fff"
                     d="M34.4,11.4c-2,2.9-3.2,6.4-3.2,10.3c0,2.7,0.6,5.4,1.6,7.8c-1.6,1.2-3.6,1.7-5.8,1.7       c-3.2,0-6.1-1.3-8.1-3.5c-0.3-0.4-0.6-0.9-1-1.3c-1.4-1.9-2.2-4.1-2.2-6.5c0-6.2,5.1-11.3,11.3-11.3       C29.9,8.6,32.4,9.6,34.4,11.4z"
                     id="path6012" /><path
                     fill="#fff"
                     d="M84,19.8c0,2.5-0.7,4.6-2,6.5c-0.4,0.4-0.7,0.9-1,1.2c-2,2.2-4.9,3.5-8.1,3.5c-2.5,0-4.8-0.7-6.6-2.2       c0.9-2.3,1.4-4.6,1.4-7.2c0-3.5-1.2-6.8-2.9-9.7c2-2,4.8-3.3,8-3.3C78.9,8.5,84,13.5,84,19.8z"
                     id="path6014" /></g></g></g></g></g></svg></g></g></svg>